<?xml version="1.0" standalone="no"?>
<!DOCTYPE svg PUBLIC "-//W3C//DTD SVG 20010904//EN"
 "http://www.w3.org/TR/2001/REC-SVG-20010904/DTD/svg10.dtd">
<svg version="1.0" xmlns="http://www.w3.org/2000/svg"
 width="475.000000pt" height="480.000000pt" viewBox="0 0 475.000000 480.000000"
 preserveAspectRatio="xMidYMid meet">

<g transform="translate(0.000000,480.000000) scale(0.100000,-0.100000)"
fill="#000000" stroke="none">
<path d="M1784 4456 l-589 -341 -3 -684 c-2 -562 0 -682 11 -678 7 3 275 156
594 341 l582 336 573 -332 c315 -182 581 -333 591 -336 16 -4 17 31 15 673
l-3 677 -415 240 c-228 132 -494 285 -591 342 l-176 102 -589 -340z"/>
<path d="M610 2404 c-316 -183 -581 -337 -588 -344 -10 -9 -12 -155 -12 -689
l1 -678 583 -341 c321 -188 588 -343 592 -344 10 -3 1184 672 1184 681 -1 3
-266 159 -590 345 l-590 340 -2 681 -3 681 -575 -332z"/>
<path d="M3560 2053 l0 -688 -580 -334 c-319 -184 -579 -339 -577 -345 2 -6
264 -160 583 -342 410 -235 583 -329 594 -323 236 130 1161 666 1161 672 -1 4
-1 312 -1 685 l0 677 -582 340 c-319 187 -585 342 -590 343 -4 2 -8 -306 -8
-685z"/>
<path d="M1570 2309 l0 -420 273 3 274 3 48 30 c84 53 131 169 105 263 -13 50
-67 114 -110 132 -36 15 -37 23 -7 39 32 17 74 85 82 131 10 56 -11 116 -57
166 -62 67 -96 74 -375 74 l-233 0 0 -421z m469 255 c43 -36 44 -93 2 -135
-29 -29 -30 -29 -155 -29 -69 0 -129 0 -133 0 -5 0 -9 43 -11 95 l-3 95 135 0
c130 0 135 -1 165 -26z m2 -324 c40 -20 59 -52 59 -98 0 -96 -32 -112 -220
-112 l-140 0 0 116 0 117 139 -6 c78 -3 149 -10 162 -17z"/>
<path d="M2480 2310 l0 -420 85 0 85 0 0 128 0 127 66 68 c36 37 67 67 69 67
1 0 53 -88 116 -195 l114 -195 108 0 c84 0 107 3 101 13 -4 6 -79 122 -166
257 l-158 244 123 126 c67 69 138 142 157 163 l34 37 -111 0 -112 0 -170 -185
c-94 -102 -171 -181 -171 -177 -1 4 0 87 0 185 l1 177 -86 0 -85 0 0 -420z"/>
<path d="M1570 1695 c0 -23 3 -25 50 -25 l49 0 3 -132 3 -133 25 0 25 0 3 133
3 132 49 0 c47 0 50 2 50 25 l0 25 -130 0 -130 0 0 -25z"/>
<path d="M1885 1708 c-3 -8 -4 -79 -3 -158 l3 -145 25 -1 c24 -1 25 1 22 58
l-4 58 49 1 c66 0 115 19 130 49 20 40 16 86 -11 117 -23 26 -30 28 -115 31
-71 3 -92 1 -96 -10z m163 -50 c17 -17 15 -54 -4 -73 -12 -11 -30 -15 -63 -13
l-46 3 -3 48 -3 47 53 0 c30 0 59 -5 66 -12z"/>
<path d="M2250 1560 l0 -161 28 3 c26 3 27 5 30 71 l3 67 69 0 69 0 3 -67 c3
-66 4 -68 31 -71 l27 -3 0 161 0 161 -27 -3 c-27 -3 -28 -6 -31 -65 l-3 -63
-69 0 -69 0 -3 63 c-3 59 -4 62 -30 65 l-28 3 0 -161z"/>
<path d="M2651 1707 c-76 -39 -101 -168 -50 -253 19 -32 79 -64 120 -64 38 0
89 29 109 62 21 34 18 42 -17 53 -16 4 -23 2 -23 -8 0 -22 -44 -57 -73 -57
-68 0 -108 100 -74 183 26 60 82 74 126 30 26 -27 55 -31 75 -13 5 5 -6 24
-26 45 -32 31 -41 35 -89 35 -30 0 -65 -6 -78 -13z"/>
<path d="M2924 1707 c-2 -7 -3 -78 -2 -157 3 -137 4 -145 23 -145 19 0 20 8
25 125 5 137 6 137 45 -20 22 -90 32 -110 54 -110 27 0 29 6 62 133 16 60 31
112 34 115 3 3 5 -52 5 -122 0 -126 0 -127 23 -124 22 3 22 5 22 158 l0 155
-41 3 -41 3 -28 -110 c-15 -61 -30 -111 -34 -111 -4 0 -20 50 -36 110 l-28
110 -39 0 c-22 0 -41 -5 -44 -13z"/>
<path d="M2125 1425 c0 -17 6 -22 25 -21 18 1 25 7 25 21 0 14 -7 20 -25 21
-19 1 -25 -4 -25 -21z"/>
</g>
</svg>
